<svg width="27" height="47" viewBox="0 0 27 47" fill="none" xmlns="http://www.w3.org/2000/svg">
<path d="M21.6634 46.0992C22.2446 46.6821 22.9843 47 23.8562 47C25.5998 47 27 45.6223 27 43.8737C27 42.9994 26.6301 42.2046 26.0225 41.5953L7.52935 23.4735L26.0225 5.40474C26.6301 4.79538 27 3.97407 27 3.12627C27 1.37768 25.5998 0 23.8562 0C22.9843 0 22.2446 0.317926 21.6634 0.900789L1.10959 21.0361C0.369863 21.7249 0.0264188 22.5727 0 23.5C0 24.4273 0.369863 25.2221 1.10959 25.9374L21.6634 46.0992Z" fill="#E0B1CB"/>
</svg>
