<svg width="26" height="26" viewBox="0 0 26 26" fill="none" xmlns="http://www.w3.org/2000/svg">
<path d="M25.234 25.9993L26 24.5222L25.0211 5.25462H18.4641C17.6699 2.15309 15.6423 0 13.2121 0C10.7794 0 8.7576 2.15309 7.96002 5.25462H1.58602L0 24.9343L1.0238 26H25.234V25.9993ZM16.632 8.20801C16.632 8.72049 17.1218 9.13468 17.7264 9.13468C18.3336 9.13468 18.8251 8.72049 18.8251 8.20801C18.8251 8.05989 18.8218 7.91036 18.8184 7.76364C19.2127 8.0297 19.4655 8.43687 19.4655 8.89319C19.4655 9.69138 18.7003 10.3372 17.7564 10.3372C16.8116 10.3372 16.0464 9.69138 16.0464 8.89319C16.0464 8.46706 16.2702 8.08305 16.6186 7.8198C16.627 7.94757 16.632 8.07814 16.632 8.20801ZM13.2121 1.85474C14.3573 1.85474 15.5924 3.1626 16.2169 5.25532H10.2056C10.8326 3.164 12.0685 1.85474 13.2121 1.85474ZM7.60489 7.80997C7.5999 7.94195 7.5974 8.07533 7.5974 8.20801C7.5974 8.72049 8.09059 9.13468 8.69605 9.13468C9.30318 9.13468 9.79387 8.72049 9.79387 8.20801C9.79387 8.0627 9.79886 7.91878 9.80385 7.77487C10.1889 8.04023 10.4359 8.44319 10.4359 8.89459C10.4359 9.69208 9.67078 10.3379 8.72516 10.3379C7.7812 10.3379 7.01772 9.69208 7.01772 8.89459C7.02022 8.46215 7.24643 8.07323 7.60489 7.80997Z" fill="#231942"/>
</svg>
